 <svg  version="1.0" xmlns="http://www.w3.org/2000/svg"  width="500.000000pt" height="315.000000pt" viewBox="0 0 300.000000 315.000000"  preserveAspectRatio="xMidYMid meet">  <g transform="translate(0.000000,315.000000) scale(0.100000,-0.100000)" fill="#ffffff" stroke="none"> <path d="M1355 3010 c-188 -20 -337 -64 -510 -150 -394 -197 -671 -560 -767 -1003 -30 -136 -32 -417 -4 -547 98 -463 370 -821 778 -1025 206 -103 398 -148 638 -149 241 0 426 41 635 143 524 257 838 783 811 1361 -25 556 -368 1047 -882 1264 -209 88 -481 129 -699 106z m425 -191 c107 -24 263 -101 350 -172 179 -146 295 -359 320 -592 27 -239 -48 -462 -220 -651 -48 -53 -113 -115 -143 -137 -47 -34 -54 -44 -47 -62 12 -32 0 -74 -27 -92 -30 -20 -53 -63 -53 -102 0 -16 9 -67 20 -113 23 -95 24 -118 9 -172 -17 -60 -84 -117 -212 -179 -128 -62 -174 -102 -218 -188 -46 -91 -116 -122 -169 -74 -22 20 -32 19 -28 -2 2 -11 -7 -21 -25 -27 -40 -14 -76 16 -98 84 -9 29 -26 58 -36 63 -10 6 -35 27 -55 47 -31 30 -38 45 -38 76 0 62 57 99 91 58 10 -13 10 -20 -4 -44 -24 -39 -21 -63 9 -91 l27 -24 -18 27 c-33 53 8 110 63 85 24 -11 25 -14 22 -67 0 -19 6 -44 15 -55 15 -19 16 -19 10 13 -9 43 11 91 40 98 37 9 62 -11 70 -58 l8 -43 6 59 c5 44 12 63 30 77 28 23 40 24 69 3 16 -11 22 -25 22 -50 0 -21 4 -33 10 -29 5 3 10 20 10 36 0 24 8 35 47 59 26 17 51 30 56 30 34 0 124 37 154 63 70 62 80 133 34 249 -51 128 -52 214 -5 284 14 20 23 43 20 50 -3 7 6 38 19 67 26 55 46 161 28 142 -6 -5 -18 -35 -27 -65 -43 -136 -143 -248 -196 -220 -11 6 -20 21 -21 33 0 12 -6 38 -14 57 -11 31 -12 23 -8 -80 5 -111 4 -117 -24 -170 -22 -43 -38 -60 -75 -78 -64 -33 -113 -25 -209 33 -126 77 -184 81 -239 19 -35 -41 -41 -67 -7 -36 32 30 61 30 53 0 -3 -13 4 -61 15 -106 17 -70 19 -89 8 -113 -13 -32 -36 -49 -68 -49 -33 0 -89 57 -102 103 -6 23 -15 51 -19 62 -18 42 -10 -40 9 -94 22 -63 19 -79 -17 -88 -60 -15 -117 41 -128 128 -4 27 -10 49 -13 49 -6 0 1 -105 10 -140 5 -18 -33 -25 -59 -11 -28 15 -51 69 -61 147 l-8 69 -2 -78 -1 -78 -27 3 c-22 2 -33 13 -50 48 -20 38 -23 60 -23 153 0 83 -4 115 -17 140 -16 30 -18 30 -21 9 -8 -53 -93 -45 -148 14 -47 49 -64 111 -64 228 -1 56 -5 133 -10 171 -33 243 -34 260 -17 331 23 91 57 140 115 167 39 18 43 22 25 25 -28 4 -28 4 -2 88 43 141 115 250 244 373 282 267 688 389 1035 310z"/> <path d="M1335 2001 c-14 -6 2 -10 50 -13 80 -6 134 -29 182 -80 53 -55 72 -112 84 -254 11 -133 18 -167 20 -98 1 21 4 52 8 68 5 26 7 28 20 13 22 -27 93 -22 129 8 35 29 47 56 67 155 10 49 25 90 45 118 37 52 38 63 4 31 -37 -35 -61 -86 -75 -163 -14 -72 -40 -106 -83 -106 -36 0 -81 51 -111 123 -37 90 -101 156 -178 185 -58 22 -125 27 -162 13z"/> <path d="M456 1888 c-19 -31 -32 -93 -17 -84 6 4 11 18 11 30 0 32 31 68 49 57 10 -7 11 -13 2 -30 -15 -28 -16 -88 -5 -353 8 -201 11 -218 32 -247 12 -16 22 -35 22 -41 0 -13 -47 -13 -55 0 -3 6 -11 10 -17 10 -6 0 -3 -9 7 -20 23 -26 67 -26 91 1 17 19 19 42 20 297 2 257 1 280 -18 324 -31 74 -93 102 -122 56z"/> <path d="M1339 1859 c24 -10 24 -10 4 -24 -45 -32 -49 -133 -8 -245 10 -28 20 -100 25 -190 5 -80 13 -165 19 -190 6 -25 11 -58 10 -75 l0 -30 -29 35 c-34 40 -39 31 -10 -17 41 -68 124 -90 163 -42 18 22 19 32 11 124 -5 55 -9 192 -9 305 0 217 -3 235 -51 297 -31 41 -73 63 -116 62 -31 0 -32 -1 -9 -10z"/> <path d="M792 1348 c-7 -7 -11 -21 -11 -32 1 -17 2 -18 6 -3 6 21 23 23 23 1 0 -9 -12 -53 -26 -99 -20 -63 -25 -99 -22 -149 3 -69 1 -74 -22 -53 -10 8 -9 5 2 -13 16 -26 53 -36 77 -21 8 5 13 26 13 55 -1 25 3 48 8 51 9 5 12 -3 25 -60 13 -59 52 -74 80 -31 20 31 13 61 -35 151 -21 39 -43 96 -49 129 -15 80 -38 105 -69 74z"/> <path d="M1950 1172 c-20 -21 -30 -39 -29 -59 2 -24 2 -24 6 -5 3 14 20 30 44 43 22 11 39 25 37 31 -8 23 -28 19 -58 -10z"/> </g> </svg> 